<svg width="16" height="20" viewBox="0 0 16 20" fill="none" xmlns="http://www.w3.org/2000/svg">
  <path
    d="M1.9833 6.91288C2.28302 7.32407 2.67955 7.85338 3.17213 8.49994L3.17208 8.49998L3.17696 8.50618C3.67083 9.13364 4.04328 9.65748 4.30017 10.0806L4.3144 10.104L4.3311 10.1258C4.62805 10.5122 4.74801 10.8527 4.7524 11.1545C4.75676 11.4536 4.6486 11.7782 4.3704 12.1375L4.35459 12.1579L4.34096 12.1799C4.00211 12.7256 3.76806 13.0183 3.63362 13.1305C3.40738 13.3152 3.18547 13.5437 2.96688 13.8104L2.96684 13.8104L2.96218 13.8163C2.76354 14.0662 2.51662 14.3043 2.21742 14.5294C1.86022 14.7873 1.56626 15.0618 1.35592 15.3574C1.20228 15.5733 1.10548 15.8204 1.09812 16.0919C1.09081 16.3618 1.17291 16.6143 1.3082 16.8417L1.30812 16.8417L1.31311 16.8498C1.51859 17.1807 1.72005 17.497 1.91747 17.7986L1.91742 17.7986L1.9218 17.8051C2.18276 18.1905 2.60807 18.5109 3.13387 18.787L3.13381 18.7871L3.14403 18.7922C3.7082 19.0722 4.27963 19.1901 4.81718 19.0327L4.8172 19.0328L4.82395 19.0307C5.40052 18.853 5.992 18.4765 6.59692 17.9451C7.16456 17.4465 7.68659 16.8867 8.16322 16.2666C8.63105 15.6689 9.09041 15.071 9.54132 14.4732L9.54133 14.4732L9.54389 14.4697C10.047 13.7906 10.5373 13.1064 11.0149 12.4172C11.5069 11.7196 11.9684 10.9921 12.3995 10.2349C12.8276 9.50274 13.2635 8.71175 13.7073 7.86219C14.1681 6.97993 14.4943 6.08189 14.6825 5.16872L14.683 5.16627C14.834 4.4144 14.776 3.72259 14.4053 3.16636L14.4048 3.16555C14.147 2.78036 13.8805 2.44059 13.6044 2.1491C13.3033 1.82086 12.9371 1.55671 12.5132 1.35364L12.5028 1.34866L12.4922 1.34416C12.0407 1.15287 11.504 1.06859 11.0807 1.41478C10.7917 1.64253 10.5655 1.98358 10.3809 2.38324C10.1021 2.97695 9.75959 3.69502 9.35328 4.53773L9.35152 4.54142C8.9649 5.36037 8.57849 5.96835 8.19951 6.38559L8.19872 6.38647C8.09006 6.50666 7.95942 6.6246 7.80454 6.73939L7.80255 6.73709C7.26578 6.11751 6.78304 5.27371 6.36455 4.18768C5.91468 3.02021 5.34549 2.08489 4.63989 1.41272L4.63989 1.41272L4.63863 1.41153C4.37787 1.16485 4.0885 0.97746 3.76829 0.890072C3.43924 0.800271 3.10852 0.824888 2.79363 0.955058L2.73557 0.979058L2.68526 1.01667C2.28308 1.31734 1.96349 1.56825 1.73081 1.76741L1.73074 1.76733L1.72349 1.77379C1.46473 2.00413 1.19116 2.34785 0.902827 2.77766L0.902826 2.77766L0.902095 2.77875C0.66268 3.13768 0.5 3.5185 0.5 3.90554V3.91444L0.500316 3.92332C0.511862 4.24789 0.612644 4.58539 0.771378 4.92682C0.926031 5.29807 1.11215 5.65357 1.32953 5.99305L1.33404 6.00009L1.33878 6.00698C1.55342 6.31871 1.76826 6.62069 1.9833 6.91288ZM1.9833 6.91288C1.98354 6.9132 1.98378 6.91353 1.98402 6.91385L2.3867 6.61747L1.98264 6.91197C1.98286 6.91227 1.98308 6.91258 1.9833 6.91288Z"
    fill="#FFE34C" stroke="#584945"/>
</svg>
