<svg xmlns="http://www.w3.org/2000/svg"
     xmlns:xlink="http://www.w3.org/1999/xlink" style="display: none">


  <symbol viewBox="0 -0.5 21 21" id="delete-basket">
    <g stroke="none" stroke-width="1" fill-rule="evenodd">
      <g transform="translate(-179.000000, -360.000000)">
        <g transform="translate(56.000000, 160.000000)">
          <path
            d="M130.35,216 L132.45,216 L132.45,208 L130.35,208 L130.35,216 Z M134.55,216 L136.65,216 L136.65,208 L134.55,208 L134.55,216 Z M128.25,218 L138.75,218 L138.75,206 L128.25,206 L128.25,218 Z M130.35,204 L136.65,204 L136.65,202 L130.35,202 L130.35,204 Z M138.75,204 L138.75,200 L128.25,200 L128.25,204 L123,204 L123,206 L126.15,206 L126.15,220 L140.85,220 L140.85,206 L144,206 L144,204 L138.75,204 Z">
          </path>
        </g>
      </g>
    </g>
  </symbol>

  <symbol viewBox="0 0 512 512" id="pencil">
    <g>
      <path class="st0" d="M500.111,71.068l-59.195-59.174c-15.859-15.849-41.531-15.862-57.386-0.014l-38.378,38.378L57.257,338.187
		c-7.775,7.768-13.721,17.165-17.443,27.498L1.801,471.476c-3.968,11.039-1.202,23.367,7.086,31.655
		c8.298,8.296,20.634,11.046,31.669,7.083l105.778-38.024c10.332-3.722,19.73-9.674,27.501-17.443l277.874-277.888l0.017,0.013
		l10.031-10.048l38.353-38.378l0.017-0.007C515.907,112.591,515.973,86.937,500.111,71.068z M136.729,445.475l-67.393,24.227
		l-27.02-27.02l24.213-67.393c0.184-0.485,0.416-0.964,0.609-1.441l71.024,71.024C137.679,445.073,137.221,445.302,136.729,445.475z
		 M153.759,434.678c-0.956,0.956-1.978,1.836-3.011,2.703L74.63,361.263c0.863-1.025,1.739-2.051,2.696-3.007L363.814,71.732
		l76.443,76.437L153.759,434.678z M480.031,108.385l-28.319,28.329l-1.421,1.421l-76.444-76.437l29.75-29.75
		c4.758-4.74,12.463-4.747,17.245,0.014l59.199,59.174C484.796,95.884,484.806,103.575,480.031,108.385z"/>
    </g>
  </symbol>

  <symbol id="eye" viewBox="0 0 32 32">
    <path class="st0"
          d="M0 16q0.064 0.128 0.16 0.352t0.48 0.928 0.832 1.344 1.248 1.536 1.664 1.696 2.144 1.568 2.624 1.344 3.136 0.896 3.712 0.352 3.712-0.352 3.168-0.928 2.592-1.312 2.144-1.6 1.664-1.632 1.248-1.6 0.832-1.312 0.48-0.928l0.16-0.352q-0.032-0.128-0.16-0.352t-0.48-0.896-0.832-1.344-1.248-1.568-1.664-1.664-2.144-1.568-2.624-1.344-3.136-0.896-3.712-0.352-3.712 0.352-3.168 0.896-2.592 1.344-2.144 1.568-1.664 1.664-1.248 1.568-0.832 1.344-0.48 0.928zM10.016 16q0-2.464 1.728-4.224t4.256-1.76 4.256 1.76 1.76 4.224-1.76 4.256-4.256 1.76-4.256-1.76-1.728-4.256zM12 16q0 1.664 1.184 2.848t2.816 1.152 2.816-1.152 1.184-2.848-1.184-2.816-2.816-1.184-2.816 1.184l2.816 2.816h-4z"></path>
  </symbol>

  <symbol id="menu" viewBox="0 0 24 24" fill="none" stroke="currentColor" stroke-width="2" stroke-linecap="round"
          stroke-linejoin="round">
    <line x1="3" y1="7" x2="21" y2="7"></line>
    <line x1="3" y1="12" x2="21" y2="12"></line>
    <line x1="3" y1="17" x2="21" y2="17"></line>
  </symbol>

  <symbol id="phone" width="16" height="16" viewBox="0 0 16 16" fill="none">
    <path
      d="M9.79486 4.05139C10.3241 4.15465 10.8495 4.38805 11.2308 4.76934C11.612 5.15063 11.8454 5.676 11.9487 6.20524M10.1538 1.53857C11.2534 1.66073 12.2428 2.19267 13.0256 2.97447C13.8084 3.75627 14.338 4.74686 14.4615 5.84626M13.0446 14.4566C13.7954 14.5243 14.4641 13.9033 14.4611 13.1596V11.2141C14.469 10.8961 14.3595 10.5863 14.1534 10.3435C13.5723 9.65904 11.5793 9.22119 10.7893 9.38934C10.1734 9.52042 9.74258 10.1388 9.32136 10.5592C8.57877 10.1377 7.89449 9.62859 7.28204 9.04517M5.42269 6.6682C5.84392 6.24781 6.46349 5.81781 6.59483 5.20318C6.76306 4.41595 6.32583 2.43565 5.64606 1.8522C5.40696 1.64699 5.10125 1.53554 4.78591 1.53864H2.83658C2.09384 1.53934 1.4759 2.20551 1.54352 2.95235C1.53924 8.39323 5.12915 12.8591 10.1538 14.1079"
      stroke="#584945" stroke-width="1.3" stroke-linecap="round" stroke-linejoin="round"/>
  </symbol>

  <symbol id="phone-imp" width="16" height="16" viewBox="0 0 16 16" fill="none">
    <path
      d="M9.79486 4.05139C10.3241 4.15465 10.8495 4.38805 11.2308 4.76934C11.612 5.15063 11.8454 5.676 11.9487 6.20524M10.1538 1.53857C11.2534 1.66073 12.2428 2.19267 13.0256 2.97447C13.8084 3.75627 14.338 4.74686 14.4615 5.84626M13.0446 14.4566C13.7954 14.5243 14.4641 13.9033 14.4611 13.1596V11.2141C14.469 10.8961 14.3595 10.5863 14.1534 10.3435C13.5723 9.65904 11.5793 9.22119 10.7893 9.38934C10.1734 9.52042 9.74258 10.1388 9.32136 10.5592C8.57877 10.1377 7.89449 9.62859 7.28204 9.04517M5.42269 6.6682C5.84392 6.24781 6.46349 5.81781 6.59483 5.20318C6.76306 4.41595 6.32583 2.43565 5.64606 1.8522C5.40696 1.64699 5.10125 1.53554 4.78591 1.53864H2.83658C2.09384 1.53934 1.4759 2.20551 1.54352 2.95235C1.53924 8.39323 5.12915 12.8591 10.1538 14.1079"
      stroke="#FFFFFF" stroke-width="1.3" stroke-linecap="round" stroke-linejoin="round"/>
  </symbol>

  <symbol id="main-eye" width="22" height="14" viewBox="0 0 22 14" fill="none">
    <path
      d="M21 7C21 7 17.3636 13.125 11 13.125C4.63636 13.125 1 7 1 7C1 7 4.63636 0.875 11 0.875C13.8779 0.875 16.198 2.12767 17.8762 3.5M8 7C8 8.44975 9.34315 9.625 11 9.625C12.6569 9.625 14 8.44975 14 7C14 5.55025 12.6569 4.375 11 4.375"
      stroke="#584945" stroke-width="1.3" stroke-linecap="round" stroke-linejoin="round"/>
  </symbol>

  <symbol id="btn-arrow" width="20" height="16" viewBox="0 0 20 16" fill="none">
    <path d="M1 8L19 8L12.2501 15M15.625 4.5L12.25 1" stroke="#584945" stroke-width="1.5" stroke-linecap="round"
          stroke-linejoin="round"/>
  </symbol>
  <symbol id="btn-arrow-imp" width="20" height="16" viewBox="0 0 20 16" fill="none">
    <path d="M1 8L19 8L12.2501 15M15.625 4.5L12.25 1" stroke="#FFFFFF" stroke-width="1.5" stroke-linecap="round"
          stroke-linejoin="round"/>
  </symbol>

  <symbol id="li-star" width="10" height="10" viewBox="0 0 10 10" fill="none">
    <path
      d="M9.04847 3.26589C10.0684 3.43587 10.3083 4.17579 9.57341 4.90571L8.33354 6.14557C8.12357 6.35555 8.00858 6.7605 8.07357 7.05047L8.42853 8.5853C8.7085 9.80017 8.06357 10.2701 6.98869 9.63519L5.49386 8.75028C5.22389 8.5903 4.77894 8.5903 4.50397 8.75028L3.00913 9.63519C1.93925 10.2701 1.28932 9.79517 1.56929 8.5853L1.92425 7.05047C1.98925 6.7605 1.87426 6.35555 1.66428 6.14557L0.424419 4.90571C-0.3055 4.17579 -0.0705258 3.43587 0.949361 3.26589L2.54419 3.00092C2.80916 2.95592 3.12912 2.72095 3.24911 2.47598L4.12901 0.716171C4.60396 -0.238724 5.38387 -0.238724 5.86382 0.716171L6.74372 2.47598C6.79372 2.58097 6.88371 2.68595 6.98869 2.77094"
      fill="#FCC577"/>
  </symbol>

  <symbol id="vk-icon" width="22" height="14" viewBox="0 0 22 14" fill="none">
    <path
      d="M20.7866 1.06167C20.9317 0.524928 20.7866 0.129883 20.0887 0.129883H17.7794C17.1913 0.129883 16.9208 0.469106 16.7757 0.846976C16.7757 0.846976 15.5995 3.98587 13.9371 6.02121C13.4 6.60948 13.153 6.79842 12.8589 6.79842C12.7138 6.79842 12.4904 6.60948 12.4904 6.07274V1.06167C12.4904 0.417579 12.3257 0.129883 11.8395 0.129883H8.20895C7.8404 0.129883 7.62084 0.430461 7.62084 0.709569C7.62084 0.942288 7.74192 1.10683 7.89645 1.31683C8.1468 1.65704 8.48495 2.11656 8.53829 3.1786V6.90577C8.53829 7.72162 8.40498 7.87191 8.11093 7.87191C7.32678 7.87191 5.42132 4.72014 4.29215 1.1132C4.06475 0.413285 3.84127 0.129883 3.24924 0.129883H0.939934C0.281254 0.129883 0.147949 0.469106 0.147949 0.846976C0.147949 1.51684 0.932093 4.84466 3.79814 9.24169C5.70753 12.2432 8.39714 13.8706 10.8437 13.8706C12.3139 13.8706 12.4943 13.5099 12.4943 12.8873C12.4943 12.4541 12.4913 12.0802 12.4886 11.7575C12.4739 9.94336 12.4723 9.74838 13.0981 9.74838C13.4392 9.74838 14.0273 9.93731 15.3995 11.3844C15.8665 11.8958 16.2174 12.3231 16.5031 12.671C17.1769 13.4915 17.4881 13.8706 18.1048 13.8706H20.4141C21.0728 13.8706 21.4061 13.5099 21.214 12.7971C20.8592 11.5863 18.8535 9.34111 18.026 8.41475C17.8293 8.19457 17.6992 8.0489 17.6736 8.00932C17.3325 7.52839 17.4305 7.3137 17.6736 6.8843C17.6775 6.88 20.4965 2.53451 20.7866 1.06167Z"
      fill="#2A79F7"/>
    <path
      d="M20.7866 1.06167C20.9317 0.524928 20.7866 0.129883 20.0887 0.129883H17.7794C17.1913 0.129883 16.9208 0.469106 16.7757 0.846976C16.7757 0.846976 15.5995 3.98587 13.9371 6.02121C13.4 6.60948 13.153 6.79842 12.8589 6.79842C12.7138 6.79842 12.4904 6.60948 12.4904 6.07274V1.06167C12.4904 0.417579 12.3257 0.129883 11.8395 0.129883H8.20895C7.8404 0.129883 7.62084 0.430461 7.62084 0.709569C7.62084 0.942288 7.74192 1.10683 7.89645 1.31683C8.1468 1.65704 8.48495 2.11656 8.53829 3.1786V6.90577C8.53829 7.72162 8.40498 7.87191 8.11093 7.87191C7.32678 7.87191 5.42132 4.72014 4.29215 1.1132C4.06475 0.413285 3.84127 0.129883 3.24924 0.129883H0.939934C0.281254 0.129883 0.147949 0.469106 0.147949 0.846976C0.147949 1.51684 0.932093 4.84466 3.79814 9.24169C5.70753 12.2432 8.39714 13.8706 10.8437 13.8706C12.3139 13.8706 12.4943 13.5099 12.4943 12.8873C12.4943 12.4541 12.4913 12.0802 12.4886 11.7575C12.4739 9.94336 12.4723 9.74838 13.0981 9.74838C13.4392 9.74838 14.0273 9.93731 15.3995 11.3844C15.8665 11.8958 16.2174 12.3231 16.5031 12.671C17.1769 13.4915 17.4881 13.8706 18.1048 13.8706H20.4141C21.0728 13.8706 21.4061 13.5099 21.214 12.7971C20.8592 11.5863 18.8535 9.34111 18.026 8.41475C17.8293 8.19457 17.6992 8.0489 17.6736 8.00932C17.3325 7.52839 17.4305 7.3137 17.6736 6.8843C17.6775 6.88 20.4965 2.53451 20.7866 1.06167Z"
      stroke="#2A79F7"/>
  </symbol>

  <symbol id="vk-icon-imp" width="22" height="14" viewBox="0 0 22 14" fill="none">
    <path
      d="M20.7866 1.06167C20.9317 0.524928 20.7866 0.129883 20.0887 0.129883H17.7794C17.1913 0.129883 16.9208 0.469106 16.7757 0.846976C16.7757 0.846976 15.5995 3.98587 13.9371 6.02121C13.4 6.60948 13.153 6.79842 12.8589 6.79842C12.7138 6.79842 12.4904 6.60948 12.4904 6.07274V1.06167C12.4904 0.417579 12.3257 0.129883 11.8395 0.129883H8.20895C7.8404 0.129883 7.62084 0.430461 7.62084 0.709569C7.62084 0.942288 7.74192 1.10683 7.89645 1.31683C8.1468 1.65704 8.48495 2.11656 8.53829 3.1786V6.90577C8.53829 7.72162 8.40498 7.87191 8.11093 7.87191C7.32678 7.87191 5.42132 4.72014 4.29215 1.1132C4.06475 0.413285 3.84127 0.129883 3.24924 0.129883H0.939934C0.281254 0.129883 0.147949 0.469106 0.147949 0.846976C0.147949 1.51684 0.932093 4.84466 3.79814 9.24169C5.70753 12.2432 8.39714 13.8706 10.8437 13.8706C12.3139 13.8706 12.4943 13.5099 12.4943 12.8873C12.4943 12.4541 12.4913 12.0802 12.4886 11.7575C12.4739 9.94336 12.4723 9.74838 13.0981 9.74838C13.4392 9.74838 14.0273 9.93731 15.3995 11.3844C15.8665 11.8958 16.2174 12.3231 16.5031 12.671C17.1769 13.4915 17.4881 13.8706 18.1048 13.8706H20.4141C21.0728 13.8706 21.4061 13.5099 21.214 12.7971C20.8592 11.5863 18.8535 9.34111 18.026 8.41475C17.8293 8.19457 17.6992 8.0489 17.6736 8.00932C17.3325 7.52839 17.4305 7.3137 17.6736 6.8843C17.6775 6.88 20.4965 2.53451 20.7866 1.06167Z"
      fill="#FFFFFF"/>
    <path
      d="M20.7866 1.06167C20.9317 0.524928 20.7866 0.129883 20.0887 0.129883H17.7794C17.1913 0.129883 16.9208 0.469106 16.7757 0.846976C16.7757 0.846976 15.5995 3.98587 13.9371 6.02121C13.4 6.60948 13.153 6.79842 12.8589 6.79842C12.7138 6.79842 12.4904 6.60948 12.4904 6.07274V1.06167C12.4904 0.417579 12.3257 0.129883 11.8395 0.129883H8.20895C7.8404 0.129883 7.62084 0.430461 7.62084 0.709569C7.62084 0.942288 7.74192 1.10683 7.89645 1.31683C8.1468 1.65704 8.48495 2.11656 8.53829 3.1786V6.90577C8.53829 7.72162 8.40498 7.87191 8.11093 7.87191C7.32678 7.87191 5.42132 4.72014 4.29215 1.1132C4.06475 0.413285 3.84127 0.129883 3.24924 0.129883H0.939934C0.281254 0.129883 0.147949 0.469106 0.147949 0.846976C0.147949 1.51684 0.932093 4.84466 3.79814 9.24169C5.70753 12.2432 8.39714 13.8706 10.8437 13.8706C12.3139 13.8706 12.4943 13.5099 12.4943 12.8873C12.4943 12.4541 12.4913 12.0802 12.4886 11.7575C12.4739 9.94336 12.4723 9.74838 13.0981 9.74838C13.4392 9.74838 14.0273 9.93731 15.3995 11.3844C15.8665 11.8958 16.2174 12.3231 16.5031 12.671C17.1769 13.4915 17.4881 13.8706 18.1048 13.8706H20.4141C21.0728 13.8706 21.4061 13.5099 21.214 12.7971C20.8592 11.5863 18.8535 9.34111 18.026 8.41475C17.8293 8.19457 17.6992 8.0489 17.6736 8.00932C17.3325 7.52839 17.4305 7.3137 17.6736 6.8843C17.6775 6.88 20.4965 2.53451 20.7866 1.06167Z"
      stroke="#FFFFFF"/>
  </symbol>

  <symbol id="location" width="16" height="26" viewBox="0 0 16 26" fill="none">
    <path
      d="M5.15283 12.4109C5.15283 13.8837 6.32808 15.0776 7.77783 15.0776C9.22758 15.0776 10.4028 13.8837 10.4028 12.4109C10.4028 10.9382 9.22758 9.74425 7.77783 9.74425M7.77783 21.2998C3.91184 19.522 0.777832 16.3383 0.777832 12.4109C0.777832 8.48356 3.91184 5.2998 7.77783 5.2998C11.6438 5.2998 14.7778 8.48356 14.7778 12.4109C14.7778 15.029 13.3851 17.3166 11.3112 19.0776"
      stroke="#584945" stroke-width="1.3" stroke-linecap="round" stroke-linejoin="round"/>
  </symbol>
  <symbol id="location-imp" width="16" height="26" viewBox="0 0 16 26" fill="none">
    <path
      d="M5.15283 12.4109C5.15283 13.8837 6.32808 15.0776 7.77783 15.0776C9.22758 15.0776 10.4028 13.8837 10.4028 12.4109C10.4028 10.9382 9.22758 9.74425 7.77783 9.74425M7.77783 21.2998C3.91184 19.522 0.777832 16.3383 0.777832 12.4109C0.777832 8.48356 3.91184 5.2998 7.77783 5.2998C11.6438 5.2998 14.7778 8.48356 14.7778 12.4109C14.7778 15.029 13.3851 17.3166 11.3112 19.0776"
      stroke="#FFFFFF" stroke-width="1.3" stroke-linecap="round" stroke-linejoin="round"/>
  </symbol>

  <symbol id="calendar" width="16" height="24" viewBox="0 0 16 24" fill="none">
    <path d="M10.9471 13.057V14.3427L11.705 15.1141M5.05232 9.85696H0.841797M5.05232 3.76172V6.80934M10.105 3.76172V6.80934M5.05232 5.28553H7.57864M10.105 5.28553H12.6313C13.5614 5.28553 14.3155 5.96776 14.3155 6.80934V8.33315M2.52601 5.28553C1.59584 5.28553 0.841797 5.96776 0.841797 6.80934V15.9522C0.841797 16.7938 1.59584 17.476 2.52601 17.476H5.05232M14.7365 14.4284C14.7365 16.3219 13.0399 17.857 10.9471 17.857C8.85419 17.857 7.15759 16.3219 7.15759 14.4284C7.15759 12.5348 8.85419 10.9998 10.9471 10.9998C13.0399 10.9998 14.7365 12.5348 14.7365 14.4284Z" stroke="#584945" stroke-width="1.3" stroke-linecap="round" stroke-linejoin="round"/>
  </symbol>
  <symbol id="calendar-imp" width="16" height="24" viewBox="0 0 16 24" fill="none">
    <path d="M10.9471 13.057V14.3427L11.705 15.1141M5.05232 9.85696H0.841797M5.05232 3.76172V6.80934M10.105 3.76172V6.80934M5.05232 5.28553H7.57864M10.105 5.28553H12.6313C13.5614 5.28553 14.3155 5.96776 14.3155 6.80934V8.33315M2.52601 5.28553C1.59584 5.28553 0.841797 5.96776 0.841797 6.80934V15.9522C0.841797 16.7938 1.59584 17.476 2.52601 17.476H5.05232M14.7365 14.4284C14.7365 16.3219 13.0399 17.857 10.9471 17.857C8.85419 17.857 7.15759 16.3219 7.15759 14.4284C7.15759 12.5348 8.85419 10.9998 10.9471 10.9998C13.0399 10.9998 14.7365 12.5348 14.7365 14.4284Z" stroke="#FFFFFF" stroke-width="1.3" stroke-linecap="round" stroke-linejoin="round"/>
  </symbol>

  <symbol id="close" width="26" height="26" viewBox="0 0 26 26" fill="none">
    <path d="M16 10L10 16M9.99997 10L15.9999 16" stroke="#584945" stroke-linecap="round"/>
    <path d="M7 2.60539C8.76504 1.58437 10.8143 1 13 1C19.6274 1 25 6.37258 25 13C25 19.6274 19.6274 25 13 25C6.37258 25 1 19.6274 1 13C1 10.8143 1.58437 8.76504 2.60539 7" stroke="#584945" stroke-linecap="round"/>
  </symbol>

  <symbol id="mobile-menu" width="24" height="25" viewBox="0 0 24 25" fill="none">
    <path d="M13.9502 5H3.0002" stroke="#584945" stroke-linecap="round" stroke-linejoin="round"/>
    <path d="M21 5H18.02" stroke="#584945" stroke-linecap="round" stroke-linejoin="round"/>
    <path d="M21 10H11.53" stroke="#584945" stroke-linecap="round" stroke-linejoin="round"/>
    <path d="M21 15H3" stroke="#584945" stroke-linecap="round" stroke-linejoin="round"/>
    <path d="M21 20H11.53" stroke="#584945" stroke-linecap="round" stroke-linejoin="round"/>
  </symbol>


</svg>
