<svg xmlns="http://www.w3.org/2000/svg"
     xmlns:xlink="http://www.w3.org/1999/xlink" style="display: none">


  <symbol viewBox="0 -0.5 21 21" id="delete-basket">
    <g stroke="none" stroke-width="1" fill-rule="evenodd">
      <g transform="translate(-179.000000, -360.000000)">
        <g transform="translate(56.000000, 160.000000)">
          <path
            d="M130.35,216 L132.45,216 L132.45,208 L130.35,208 L130.35,216 Z M134.55,216 L136.65,216 L136.65,208 L134.55,208 L134.55,216 Z M128.25,218 L138.75,218 L138.75,206 L128.25,206 L128.25,218 Z M130.35,204 L136.65,204 L136.65,202 L130.35,202 L130.35,204 Z M138.75,204 L138.75,200 L128.25,200 L128.25,204 L123,204 L123,206 L126.15,206 L126.15,220 L140.85,220 L140.85,206 L144,206 L144,204 L138.75,204 Z">
          </path>
        </g>
      </g>
    </g>
  </symbol>

  <symbol viewBox="0 0 512 512" id="pencil">
    <g>
      <path class="st0" d="M500.111,71.068l-59.195-59.174c-15.859-15.849-41.531-15.862-57.386-0.014l-38.378,38.378L57.257,338.187
		c-7.775,7.768-13.721,17.165-17.443,27.498L1.801,471.476c-3.968,11.039-1.202,23.367,7.086,31.655
		c8.298,8.296,20.634,11.046,31.669,7.083l105.778-38.024c10.332-3.722,19.73-9.674,27.501-17.443l277.874-277.888l0.017,0.013
		l10.031-10.048l38.353-38.378l0.017-0.007C515.907,112.591,515.973,86.937,500.111,71.068z M136.729,445.475l-67.393,24.227
		l-27.02-27.02l24.213-67.393c0.184-0.485,0.416-0.964,0.609-1.441l71.024,71.024C137.679,445.073,137.221,445.302,136.729,445.475z
		 M153.759,434.678c-0.956,0.956-1.978,1.836-3.011,2.703L74.63,361.263c0.863-1.025,1.739-2.051,2.696-3.007L363.814,71.732
		l76.443,76.437L153.759,434.678z M480.031,108.385l-28.319,28.329l-1.421,1.421l-76.444-76.437l29.75-29.75
		c4.758-4.74,12.463-4.747,17.245,0.014l59.199,59.174C484.796,95.884,484.806,103.575,480.031,108.385z"/>
    </g>
  </symbol>

  <symbol id="eye" viewBox="0 0 32 32">
    <path class="st0"
          d="M0 16q0.064 0.128 0.16 0.352t0.48 0.928 0.832 1.344 1.248 1.536 1.664 1.696 2.144 1.568 2.624 1.344 3.136 0.896 3.712 0.352 3.712-0.352 3.168-0.928 2.592-1.312 2.144-1.6 1.664-1.632 1.248-1.6 0.832-1.312 0.48-0.928l0.16-0.352q-0.032-0.128-0.16-0.352t-0.48-0.896-0.832-1.344-1.248-1.568-1.664-1.664-2.144-1.568-2.624-1.344-3.136-0.896-3.712-0.352-3.712 0.352-3.168 0.896-2.592 1.344-2.144 1.568-1.664 1.664-1.248 1.568-0.832 1.344-0.48 0.928zM10.016 16q0-2.464 1.728-4.224t4.256-1.76 4.256 1.76 1.76 4.224-1.76 4.256-4.256 1.76-4.256-1.76-1.728-4.256zM12 16q0 1.664 1.184 2.848t2.816 1.152 2.816-1.152 1.184-2.848-1.184-2.816-2.816-1.184-2.816 1.184l2.816 2.816h-4z"></path>
  </symbol>

  <symbol id="menu" viewBox="0 0 24 24" fill="none" stroke="currentColor" stroke-width="2" stroke-linecap="round" stroke-linejoin="round">
    <line x1="3" y1="7" x2="21" y2="7"></line>
    <line x1="3" y1="12" x2="21" y2="12"></line>
    <line x1="3" y1="17" x2="21" y2="17"></line>
  </symbol>

  <symbol id="phone" width="16" height="16" viewBox="0 0 16 16" fill="none">
    <path d="M9.79486 4.05139C10.3241 4.15465 10.8495 4.38805 11.2308 4.76934C11.612 5.15063 11.8454 5.676 11.9487 6.20524M10.1538 1.53857C11.2534 1.66073 12.2428 2.19267 13.0256 2.97447C13.8084 3.75627 14.338 4.74686 14.4615 5.84626M13.0446 14.4566C13.7954 14.5243 14.4641 13.9033 14.4611 13.1596V11.2141C14.469 10.8961 14.3595 10.5863 14.1534 10.3435C13.5723 9.65904 11.5793 9.22119 10.7893 9.38934C10.1734 9.52042 9.74258 10.1388 9.32136 10.5592C8.57877 10.1377 7.89449 9.62859 7.28204 9.04517M5.42269 6.6682C5.84392 6.24781 6.46349 5.81781 6.59483 5.20318C6.76306 4.41595 6.32583 2.43565 5.64606 1.8522C5.40696 1.64699 5.10125 1.53554 4.78591 1.53864H2.83658C2.09384 1.53934 1.4759 2.20551 1.54352 2.95235C1.53924 8.39323 5.12915 12.8591 10.1538 14.1079" stroke="#584945" stroke-width="1.3" stroke-linecap="round" stroke-linejoin="round"/>
  </symbol>

  <symbol id="main-eye" width="22" height="14" viewBox="0 0 22 14" fill="none">
      <path d="M21 7C21 7 17.3636 13.125 11 13.125C4.63636 13.125 1 7 1 7C1 7 4.63636 0.875 11 0.875C13.8779 0.875 16.198 2.12767 17.8762 3.5M8 7C8 8.44975 9.34315 9.625 11 9.625C12.6569 9.625 14 8.44975 14 7C14 5.55025 12.6569 4.375 11 4.375" stroke="#584945" stroke-width="1.3" stroke-linecap="round" stroke-linejoin="round"/>
  </symbol>

</svg>
