<svg xmlns="http://www.w3.org/2000/svg"
     xmlns:xlink="http://www.w3.org/1999/xlink" style="display: none">


  <symbol viewBox="0 -0.5 21 21" id="delete-basket">
    <g stroke="none" stroke-width="1" fill-rule="evenodd">
      <g transform="translate(-179.000000, -360.000000)">
        <g transform="translate(56.000000, 160.000000)">
          <path
            d="M130.35,216 L132.45,216 L132.45,208 L130.35,208 L130.35,216 Z M134.55,216 L136.65,216 L136.65,208 L134.55,208 L134.55,216 Z M128.25,218 L138.75,218 L138.75,206 L128.25,206 L128.25,218 Z M130.35,204 L136.65,204 L136.65,202 L130.35,202 L130.35,204 Z M138.75,204 L138.75,200 L128.25,200 L128.25,204 L123,204 L123,206 L126.15,206 L126.15,220 L140.85,220 L140.85,206 L144,206 L144,204 L138.75,204 Z">
          </path>
        </g>
      </g>
    </g>
  </symbol>

  <symbol viewBox="0 0 512 512" id="pencil">
    <g>
      <path class="st0" d="M500.111,71.068l-59.195-59.174c-15.859-15.849-41.531-15.862-57.386-0.014l-38.378,38.378L57.257,338.187
		c-7.775,7.768-13.721,17.165-17.443,27.498L1.801,471.476c-3.968,11.039-1.202,23.367,7.086,31.655
		c8.298,8.296,20.634,11.046,31.669,7.083l105.778-38.024c10.332-3.722,19.73-9.674,27.501-17.443l277.874-277.888l0.017,0.013
		l10.031-10.048l38.353-38.378l0.017-0.007C515.907,112.591,515.973,86.937,500.111,71.068z M136.729,445.475l-67.393,24.227
		l-27.02-27.02l24.213-67.393c0.184-0.485,0.416-0.964,0.609-1.441l71.024,71.024C137.679,445.073,137.221,445.302,136.729,445.475z
		 M153.759,434.678c-0.956,0.956-1.978,1.836-3.011,2.703L74.63,361.263c0.863-1.025,1.739-2.051,2.696-3.007L363.814,71.732
		l76.443,76.437L153.759,434.678z M480.031,108.385l-28.319,28.329l-1.421,1.421l-76.444-76.437l29.75-29.75
		c4.758-4.74,12.463-4.747,17.245,0.014l59.199,59.174C484.796,95.884,484.806,103.575,480.031,108.385z"/>
    </g>
  </symbol>

  <symbol id="eye" viewBox="0 0 32 32">
    <path class="st0"
          d="M0 16q0.064 0.128 0.16 0.352t0.48 0.928 0.832 1.344 1.248 1.536 1.664 1.696 2.144 1.568 2.624 1.344 3.136 0.896 3.712 0.352 3.712-0.352 3.168-0.928 2.592-1.312 2.144-1.6 1.664-1.632 1.248-1.6 0.832-1.312 0.48-0.928l0.16-0.352q-0.032-0.128-0.16-0.352t-0.48-0.896-0.832-1.344-1.248-1.568-1.664-1.664-2.144-1.568-2.624-1.344-3.136-0.896-3.712-0.352-3.712 0.352-3.168 0.896-2.592 1.344-2.144 1.568-1.664 1.664-1.248 1.568-0.832 1.344-0.48 0.928zM10.016 16q0-2.464 1.728-4.224t4.256-1.76 4.256 1.76 1.76 4.224-1.76 4.256-4.256 1.76-4.256-1.76-1.728-4.256zM12 16q0 1.664 1.184 2.848t2.816 1.152 2.816-1.152 1.184-2.848-1.184-2.816-2.816-1.184-2.816 1.184l2.816 2.816h-4z"></path>
  </symbol>

  <symbol id="menu" viewBox="0 0 24 24" fill="none" stroke="currentColor" stroke-width="2" stroke-linecap="round" stroke-linejoin="round">
    <line x1="3" y1="7" x2="21" y2="7"></line>
    <line x1="3" y1="12" x2="21" y2="12"></line>
    <line x1="3" y1="17" x2="21" y2="17"></line>
  </symbol>
</svg>
